<svg xmlns="http://www.w3.org/2000/svg" width="33.92" height="33.92" viewBox="0 0 33.92 33.92">
  <g id="iconfinder_football_416378" transform="translate(16.669 -21.023) rotate(43)">
    <g id="Ball" transform="translate(14.117 15.581)">
      <g id="Group_6" data-name="Group 6">
        <path id="Path_7" data-name="Path 7" d="M20.25,0C8.25,0,0,8.25,0,20.25,0,24,0,24,3.75,24,15.75,24,24,15.75,24,3.75,24,0,24,0,20.25,0Z" fill="#0065a9"/>
      </g>
    </g>
    <g id="Lines" transform="translate(13.194 11.825) rotate(-1)">
      <g id="Group_8" data-name="Group 8" transform="matrix(0.999, 0.035, -0.035, 0.999, 1.24, 3.731)">
        <path id="Path_9" data-name="Path 9" d="M.5,14.075a22.845,22.845,0,0,0-.619,3.361,18.975,18.975,0,0,0,2.83,3.5,18.855,18.855,0,0,0,3.459,2.866,22.218,22.218,0,0,0,3.056-.561,20.206,20.206,0,0,1-5.021-3.82A18.287,18.287,0,0,1,.5,14.075ZM20.645,2.769A18.855,18.855,0,0,0,17.185-.1,22.217,22.217,0,0,0,14.13.463a20.206,20.206,0,0,1,5.021,3.82,18.285,18.285,0,0,1,3.7,5.351,22.845,22.845,0,0,0,.619-3.361A18.975,18.975,0,0,0,20.645,2.769Z" transform="translate(0.156 -0.002)" fill="#e6e6e6" fill-rule="evenodd"/>
      </g>
    </g>
    <g id="Lace" transform="translate(18.977 20.748)">
      <g id="Group_9" data-name="Group 9">
        <path id="Path_10" data-name="Path 10" d="M30.289,18C29.816,18,18,29.412,18,29.869a1,1,0,0,0,.945.913c.473,0,12.289-11.412,12.289-11.869A1,1,0,0,0,30.289,18Z" transform="translate(-18 -18)" fill="#ccc"/>
      </g>
    </g>
    <g id="Lace_1_" transform="translate(19.889 21.233)">
      <g id="Group_10" data-name="Group 10" transform="translate(0.682 0.731)">
        <path id="Path_11" data-name="Path 11" d="M25.508,18a.79.79,0,0,0-.751.717,11.185,11.185,0,0,0,3,2.87.79.79,0,0,0,.751-.717A11.185,11.185,0,0,0,25.508,18Zm-2.252,2.152a.79.79,0,0,0-.751.717,11.185,11.185,0,0,0,3,2.87.79.79,0,0,0,.751-.717A11.185,11.185,0,0,0,23.255,20.152ZM21,22.3a.79.79,0,0,0-.751.717,11.185,11.185,0,0,0,3,2.87.79.79,0,0,0,.751-.717A11.185,11.185,0,0,0,21,22.3Zm-2.252,2.152a.79.79,0,0,0-.751.717,11.185,11.185,0,0,0,3,2.87.79.79,0,0,0,.751-.717A11.185,11.185,0,0,0,18.751,24.457Z" transform="translate(-18 -18)" fill="#00d801" fill-rule="evenodd"/>
      </g>
    </g>
  </g>
</svg>
