<svg xmlns="http://www.w3.org/2000/svg" width="318" height="337.329" viewBox="0 0 318 337.329">
  <g id="Path_17" data-name="Path 17" fill="#6e6e6e">
    <path d="M 317.5 336.8294067382813 L 0.5 336.8294067382813 L 0.5 0.5000214576721191 L 317.5 0.5000214576721191 L 317.5 336.8294067382813 Z" stroke="none"/>
    <path d="M 1 0.999969482421875 L 1 336.329345703125 L 317 336.329345703125 L 317 0.999969482421875 L 1 0.999969482421875 M 0 -3.0517578125e-05 L 318 -3.0517578125e-05 L 318 337.329345703125 L 0 337.329345703125 L 0 -3.0517578125e-05 Z" stroke="none" fill="#717171"/>
  </g>
  <path id="Icon_ionic-md-person" data-name="Icon ionic-md-person" d="M129.5,129.5A62.5,62.5,0,1,0,67,67,62.682,62.682,0,0,0,129.5,129.5Zm0,31.25c-41.4,0-125,21.1-125,62.5V254.5h250V223.25C254.5,181.845,170.9,160.75,129.5,160.75Z" transform="translate(29.5 82.829)" fill="#fff" opacity="0.5"/>
</svg>
